HIERARCHY
ROOT Hips
{
	OFFSET	0.00	0.00	0.00
	CHANNELS 6 Xposition Yposition Zposition Zrotation Xrotation Yrotation
	JOINT Spine
	{
		OFFSET	 0.00	0.01	 0.00
		CHANNELS 3 Zrotation Xrotation Yrotation
		JOINT Spine1
		{
			OFFSET	 0.00	 2.45913012437421	 0.00
			CHANNELS 3 Zrotation Xrotation Yrotation
            JOINT Neck
            {
                OFFSET	 0.00	 2.48462964506057	 0.00
                CHANNELS 3 Zrotation Xrotation Yrotation
                JOINT Head
                {
                    OFFSET	 0.00	 0.927524780924562	 0.00
                    CHANNELS 3 Zrotation Xrotation Yrotation
                    End Site 
                    {
                        OFFSET	 0.00	 1.14999962169752	 0.00
                    }
                }
            }
			JOINT LeftShoulder
			{
				OFFSET	 0.00	 2.48462964506057	 0.00
				CHANNELS 3 Zrotation Xrotation Yrotation
				JOINT LeftUpArm
				{
					OFFSET	 0.00	 1.24881979654096	 0.00
					CHANNELS 3 Zrotation Xrotation Yrotation
					JOINT LeftForeArm
					{
						OFFSET	 0.00	2.59758046908119	 0.00
						CHANNELS 3 Zrotation Xrotation Yrotation
						JOINT LeftHand
						{
							OFFSET	 0.00	2.45542024364365	 0.00
							CHANNELS 3 Zrotation Xrotation Yrotation
							JOINT LeftHandThumb 
							{
								OFFSET	 0.00	0.00	 0.00
								CHANNELS 3 Zrotation Xrotation Yrotation
								End Site
								{
									OFFSET	 0.00	0.00	1.00000003353624
								}
							}
							JOINT L_Wrist_End 
							{
								OFFSET	 0.00	0.99999967115358	 0.00
								CHANNELS 3 Zrotation Xrotation Yrotation
								End Site 
								{
									OFFSET	 0.00	 0.00	 0.00
								}
							}
						}
					}
				}
			}
			JOINT RightShoulder
			{
				OFFSET	 0.00	 2.48462964506057	 0.00
				CHANNELS 3 Zrotation Xrotation Yrotation
				JOINT RightUpArm
				{
					OFFSET	 0.00	 1.24881979654096	 0.00
					CHANNELS 3 Zrotation Xrotation Yrotation
					JOINT RightForeArm
					{
						OFFSET	 0.00	2.59758046908119	 0.00
						CHANNELS 3 Zrotation Xrotation Yrotation
						JOINT RightHand
						{
							OFFSET	 0.00	2.45542024364365	 0.00
							CHANNELS 3 Zrotation Xrotation Yrotation
							JOINT RightHandThumb 
							{
								OFFSET	 0.00	0.00	 0.00
								CHANNELS 3 Zrotation Xrotation Yrotation
								End Site
								{
									OFFSET	 0.00	0.00	1.00000003353624
								}
							}
							JOINT R_Wrist_End 
							{
								OFFSET	 0.00	0.99999967115358	 0.00
								CHANNELS 3 Zrotation Xrotation Yrotation
								End Site 
								{
									OFFSET	 0.00	 0.00	 0.00
								}
							}
						}
					}
				}
			}
		}
	}
	JOINT LeftUpLeg
	{
		OFFSET	 1.2719394002717	 0.00	 0.00
		CHANNELS 3 Zrotation Xrotation Yrotation
		JOINT LeftLowLeg
		{
			OFFSET	 0.00	-4.3429100912261	 0.00
			CHANNELS 3 Zrotation Xrotation Yrotation
			JOINT LeftFoot
			{
				OFFSET	 0.00	-4.48767017425826	 0.00
				CHANNELS 3 Zrotation Xrotation Yrotation
				JOINT LeftToeBase
                {
                    OFFSET	 0.00	0.00	 1.51507020887566
                    CHANNELS 3 Zrotation Xrotation Yrotation
                    End Site 
                    {
                        OFFSET	 0.00	0.00	 0.75000010571191
                    }
                }
			}
		}
	}
	JOINT RightUpLeg
	{
		OFFSET	 -1.2719393604653	 0.00	 0.00
		CHANNELS 3 Zrotation Xrotation Yrotation
		JOINT RightLowLeg
		{
			OFFSET	 0.00	-4.3429100912261	 0.00
			CHANNELS 3 Zrotation Xrotation Yrotation
			JOINT RightFoot
			{
				OFFSET	 0.00	-4.48767017425826	 0.00
				CHANNELS 3 Zrotation Xrotation Yrotation
				JOINT RightToeBase
                {
                    OFFSET	 0.00	0.00	 1.51507020887566
                    CHANNELS 3 Zrotation Xrotation Yrotation
                    End Site 
                    {
                        OFFSET	 0.00	0.00	 0.749999965609858
                    }
                }   
			}
		}
	}
}
MOTION 
Frames:	13 
Frame Time: 0.02 
 2.2188299560546874 2.0083099365234376 9.821290283203124 -147.288 83.8899 -567.48 2.68916 -6.95143 -2.52363 -0.291098 3.36194 -2.69105 -2.6739 36.9064 4.78326 15.0007 -48.0804 10.8458 -89.125 -16.6193 -4.94883 -7.24962 7.72659 -30.8147 0.0 21.1647 0.0 30.3645 -7.75303 23.9684 0.0 0.0 0.0 0.0 0.0 0.0 97.27577 -12.8878 0.754856 5.4326 2.01991 37.8947 0.0 22.8926 0.0 -19.2944 -4.09904 -28.9481 0.0 0.0 0.0 0.0 0.0 0.0 5.55084 -3.80647 -1.29096 0.0 6.87766 0.0 -0.033252 7.82736 -3.07004 0.0 -25.687199 0.0 1.75425 -1.07141 6.20485 0.0 6.86647 0.0 9.07019 9.34274 -7.05979 0.0 -27.899399 0.0 
  2.2191600036621093 2.0076199340820313 9.821240234375 -147.28 83.8947 -567.464 2.6974 -6.96928 -2.53398 -0.290065 3.36049 -2.70302 -2.7126 36.8737 4.8375 15.0268 -48.0701 10.8147 -89.15718 -16.609 -4.95578 -7.19387 7.68485 -30.8759 0.0 21.0942 0.0 30.0788 -7.37995 23.9916 0.0 0.0 0.0 0.0 0.0 0.0 97.26631 -12.9036 0.76984 5.44889 2.04128 37.9059 0.0 22.9004 0.0 -19.1076 -4.14486 -28.8908 0.0 0.0 0.0 0.0 0.0 0.0 5.54639 -3.80465 -1.30333 0.0 6.88026 0.0 -0.0331979 7.82731 -3.07703 0.0 -25.6954 0.0 1.75079 -1.05665 6.19608 0.0 6.85885 0.0 9.08484 9.33494 -7.07178 0.0 -27.8852 0.0 
  2.219459991455078 2.0070199584960937 9.821129760742188 -147.244 83.9019 -567.475 2.70553 -6.97436 -2.54315 -0.293842 3.33905 -2.71396 -2.70019 36.8708 4.82576 15.0443 -48.0632 10.8141 -89.16906 -16.6004 -4.95521 -7.15641 7.66505 -30.7975 0.0 21.0812 0.0 30.074 -7.39565 23.9251 0.0 0.0 0.0 0.0 0.0 0.0 97.27292 -12.9307 0.766225 5.4375 2.09167 37.9447 0.0 22.8602 0.0 -19.0879 -4.14159 -28.9559 0.0 0.0 0.0 0.0 0.0 0.0 5.54427 -3.80082 -1.31695 0.0 6.88337 0.0 -0.0263599 7.82516 -3.08879 0.0 -25.688599 0.0 1.74837 -1.03617 6.16272 0.0 6.84897 0.0 9.07727 9.33639 -7.06483 0.0 -27.9205 0.0 
  2.219510040283203 2.0066099548339844 9.821060180664062 -147.228 83.9144 -567.481 2.70129 -6.97809 -2.55179 -0.294375 3.33746 -2.72186 -2.66068 36.851 4.77958 15.0369 -48.0469 10.8256 -89.149826 -16.6222 -4.96002 -7.18746 7.67454 -30.8609 0.0 21.0912 0.0 30.0806 -7.38751 23.951 0.0 0.0 0.0 0.0 0.0 0.0 97.27992 -12.9192 0.76176 5.42288 2.05882 37.8543 0.0 22.8335 0.0 -19.0725 -4.00146 -28.9474 0.0 0.0 0.0 0.0 0.0 0.0 5.53946 -3.78901 -1.31739 0.0 6.8836 0.0 -0.0248293 7.82519 -3.1002 0.0 -25.695301 0.0 1.74489 -1.03034 6.14424 0.0 6.86995 0.0 9.07537 9.32092 -7.05581 0.0 -27.8986 0.0 
  2.2196400451660154 2.0062899780273438 9.820989990234375 -147.138 83.9343 -567.563 2.70391 -6.96935 -2.54931 -0.286543 3.31507 -2.71991 -2.60248 36.849 4.68167 15.0081 -48.0446 10.8033 -89.134186 -16.6103 -4.9694 -7.22877 7.66863 -30.9723 0.0 21.1017 0.0 30.0822 -7.39628 23.9956 0.0 0.0 0.0 0.0 0.0 0.0 97.26611 -12.9254 0.754399 5.43849 2.06255 37.8587 0.0 22.8984 0.0 -19.196 -4.24226 -28.9007 0.0 0.0 0.0 0.0 0.0 0.0 5.53727 -3.77101 -1.3163 0.0 6.89147 0.0 -0.0185006 7.82135 -3.10582 0.0 -25.7022 0.0 1.74441 -1.00818 6.16335 0.0 6.87511 0.0 9.08333 9.311399 -7.07771 0.0 -27.8891 0.0 
  2.2197500610351564 2.006009979248047 9.820999755859376 -147.045 83.9562 -567.646 2.70809 -6.9601 -2.55521 -0.290564 3.30846 -2.72682 -2.55617 36.8498 4.62683 15.0152 -48.0731 10.8483 -89.11716 -16.6127 -4.95704 -7.23926 7.64736 -30.9994 0.0 21.1131 0.0 30.0708 -7.44296 24.0027 0.0 0.0 0.0 0.0 0.0 0.0 97.27528 -12.9302 0.753354 5.42618 2.06956 37.8843 0.0 22.8892 0.0 -18.8732 -4.03874 -29.6397 0.0 0.0 0.0 0.0 0.0 0.0 5.53327 -3.75859 -1.33055 0.0 6.91323 0.0 -0.027654 7.81279 -3.10508 0.0 -25.7 0.0 1.74244 -0.987654 6.18475 0.0 6.88963 0.0 9.094 9.30101 -7.09633 0.0 -27.8947 0.0 
  2.2197999572753906 2.005919952392578 9.820859985351563 -146.861 84.0092 -567.823 2.6993 -6.93059 -2.55922 -0.278968 3.32961 -2.7292 -2.52921 36.8013 4.58444 15.018 -48.0898 10.84 -89.123604 -16.5985 -4.95523 -7.1907 7.60417 -30.9 0.0 21.0872 0.0 30.0674 -7.45747 24.025 0.0 0.0 0.0 0.0 0.0 0.0 97.29112 -12.9381 0.773067 5.36799 2.07459 37.8161 0.0 22.8587 0.0 -19.2386 -4.11347 -28.5835 0.0 0.0 0.0 0.0 0.0 0.0 5.52317 -3.72496 -1.35593 0.0 6.95484 0.0 -0.0210617 7.80218 -3.09035 0.0 -25.709 0.0 1.73375 -0.93452 6.18658 0.0 6.8978 0.0 9.11064 9.28698 -7.09227 0.0 -27.897 0.0 
  2.2198199462890624 2.0063499450683593 9.820819702148437 -146.679 84.0578 -568.007 2.69601 -6.89055 -2.55829 -0.281597 3.35383 -2.72785 -2.50661 36.7399 4.57072 15.0557 -48.1093 10.8666 -89.1314 -16.5993 -4.97329 -7.1416 7.57184 -30.8143 0.0 21.0755 0.0 30.1082 -7.44555 24.0602 0.0 0.0 0.0 0.0 0.0 0.0 97.309 -12.9352 0.777902 5.3269 2.06703 37.8316 0.0 22.8451 0.0 -19.1519 -4.17457 -28.9025 0.0 0.0 0.0 0.0 0.0 0.0 5.51349 -3.69646 -1.38428 0.0 6.99823 0.0 -0.0174545 7.78934 -3.06207 0.0 -25.705101 0.0 1.72596 -0.888833 6.18216 0.0 6.90547 0.0 9.13018 9.279261 -7.07711 0.0 -27.8937 0.0 
  2.2198800659179687 2.0068899536132814 9.820759887695312 -146.549 84.1046 -568.143 2.68096 -6.85846 -2.54842 -0.268961 3.39327 -2.71494 -2.47693 36.6617 4.54277 15.0669 -48.1177 10.8853 -89.147095 -16.5864 -4.96198 -7.10548 7.54262 -30.8765 0.0 21.1044 0.0 30.1116 -7.42898 24.0686 0.0 0.0 0.0 0.0 0.0 0.0 97.31455 -12.9419 0.792646 5.29102 2.03486 37.8243 0.0 22.8624 0.0 -19.2415 -4.18113 -28.4928 0.0 0.0 0.0 0.0 0.0 0.0 5.49951 -3.66671 -1.44154 0.0 7.0314 0.0 -0.0304354 7.78185 -3.00895 0.0 -25.707401 0.0 1.71453 -0.85659 6.18037 0.0 6.92968 0.0 9.12924 9.26358 -7.06026 0.0 -27.8872 0.0 
  2.2201800537109375 2.0078199768066405 9.820700073242188 -146.414 84.138 -568.291 2.67434 -6.83937 -2.5406 -0.263751 3.43817 -2.70572 -2.45038 36.6128 4.52488 15.1024 -48.1516 10.93 -89.15166 -16.5969 -4.99112 -7.08962 7.5276 -30.9361 0.0 21.1372 0.0 30.1397 -7.43899 24.0482 0.0 0.0 0.0 0.0 0.0 0.0 97.32196 -12.9272 0.796282 5.26277 1.99791 37.82 0.0 22.8781 0.0 -19.4421 -4.17629 -28.9605 0.0 0.0 0.0 0.0 0.0 0.0 5.49108 -3.64878 -1.47931 0.0 7.06386 0.0 -0.0203186 7.76828 -2.96082 0.0 -25.6898 0.0 1.70732 -0.844275 6.18754 0.0 6.96562 0.0 9.15131 9.24684 -7.03441 0.0 -27.8722 0.0 
  2.2202799987792967 2.0083099365234376 9.820689697265625 -146.302 84.1652 -568.41 2.66246 -6.81509 -2.53359 -0.2476 3.4562 -2.6963 -2.44685 36.596 4.52183 15.1195 -48.1732 10.939 -89.15786 -16.5903 -5.00185 -7.08078 7.51088 -30.9238 0.0 21.1597 0.0 30.1758 -7.4433 24.1092 0.0 0.0 0.0 0.0 0.0 0.0 97.31237 -12.9266 0.798145 5.2662 1.97612 37.8232 0.0 22.9096 0.0 -19.4621 -4.18731 -28.9696 0.0 0.0 0.0 0.0 0.0 0.0 5.48645 -3.62788 -1.49008 0.0 7.07987 0.0 -0.0264894 7.76433 -2.94703 0.0 -25.698 0.0 1.70654 -0.823085 6.21402 0.0 6.97027 0.0 9.1445 9.24758 -7.06246 0.0 -27.8908 0.0 
  2.2209599304199217 2.0101100158691407 9.820700073242188 -146.108 84.2085 -568.617 2.63777 -6.78316 -2.5342 -0.203025 3.52105 -2.69181 -2.47911 36.5337 4.55693 15.1531 -48.1956 10.8998 -89.217354 -16.5991 -4.99867 -6.97862 7.45148 -30.771 0.0 21.2152 0.0 30.21 -7.42644 24.1536 0.0 0.0 0.0 0.0 0.0 0.0 97.28214 -12.8978 0.781994 5.28497 1.92431 37.8888 0.0 22.9628 0.0 -19.2255 -4.02907 -27.6183 0.0 0.0 0.0 0.0 0.0 0.0 5.47608 -3.61017 -1.52735 0.0 7.12512 0.0 -0.0280862 7.75137 -2.90696 0.0 -25.6791 0.0 1.69657 -0.80311 6.25054 0.0 7.0052 0.0 9.18884 9.2272 -7.05565 0.0 -27.861599 0.0 
  2.2213099670410155 2.011399993896484 9.820789794921875 -146.069 84.2283 -568.653 2.6216 -6.75867 -2.53242 -0.190593 3.53676 -2.68692 -2.47258 36.5213 4.54394 15.1654 -48.2108 10.8937 -89.21975 -16.5932 -4.98763 -6.98834 7.41771 -30.8226 0.0 21.2793 0.0 30.2123 -7.40507 24.1452 0.0 0.0 0.0 0.0 0.0 0.0 97.27892 -12.8891 0.801046 5.30857 1.87286 37.8872 0.0 23.0509 0.0 -19.2623 -4.03699 -27.5454 0.0 0.0 0.0 0.0 0.0 0.0 5.46551 -3.60937 -1.53637 0.0 7.14607 0.0 -0.0224033 7.75327 -2.90001 0.0 -25.661701 0.0 1.6888 -0.799401 6.25337 0.0 7.0222 0.0 9.18274 9.22279 -7.06471 0.0 -27.8539 0.0 
